<mxfile host="www.draw.io" modified="2019-12-04T19:03:09.738Z" agent="Mozilla/5.0 (Windows NT 10.0; Win64; x64) AppleWebKit/537.36 (KHTML, like Gecko) Chrome/78.0.3904.108 Safari/537.36" etag="Q3Y8sBu96Wr2Q6GW_hHz" version="12.3.6" type="github" pages="1">
  <diagram id="vclmZol-7umqQOqe9Rck" name="Page-1">
    <mxGraphModel dx="1038" dy="579" grid="1" gridSize="10" guides="1" tooltips="1" connect="1" arrows="1" fold="1" page="1" pageScale="1" pageWidth="1169" pageHeight="827" math="0" shadow="0">
      <root>
        <mxCell id="0"/>
        <mxCell id="1" parent="0"/>
        <mxCell id="S4vEpRtLoYUOu1Y5i1EH-1" style="edgeStyle=orthogonalEdgeStyle;rounded=0;orthogonalLoop=1;jettySize=auto;html=1;exitX=0.5;exitY=1;exitDx=0;exitDy=0;entryX=0;entryY=0.5;entryDx=0;entryDy=0;entryPerimeter=0;" parent="1" source="S4vEpRtLoYUOu1Y5i1EH-3" target="S4vEpRtLoYUOu1Y5i1EH-4" edge="1">
          <mxGeometry relative="1" as="geometry">
            <mxPoint x="756" y="124" as="sourcePoint"/>
          </mxGeometry>
        </mxCell>
        <mxCell id="7yguZ5mXVUmebH4h-tQh-77" style="edgeStyle=orthogonalEdgeStyle;rounded=0;orthogonalLoop=1;jettySize=auto;html=1;exitX=0.5;exitY=1;exitDx=0;exitDy=0;exitPerimeter=0;entryX=0.5;entryY=0;entryDx=0;entryDy=0;startArrow=none;startFill=0;endArrow=none;endFill=0;" parent="1" source="S4vEpRtLoYUOu1Y5i1EH-4" target="0eRpexR927NenuxwNdnH-1" edge="1">
          <mxGeometry relative="1" as="geometry"/>
        </mxCell>
        <mxCell id="7yguZ5mXVUmebH4h-tQh-4" style="edgeStyle=orthogonalEdgeStyle;rounded=0;orthogonalLoop=1;jettySize=auto;html=1;exitX=1;exitY=0.85;exitDx=0;exitDy=0;exitPerimeter=0;entryX=0.5;entryY=0;entryDx=0;entryDy=0;curved=1;endArrow=none;endFill=0;shape=link;" parent="1" source="S4vEpRtLoYUOu1Y5i1EH-5" target="S4vEpRtLoYUOu1Y5i1EH-10" edge="1">
          <mxGeometry relative="1" as="geometry"/>
        </mxCell>
        <mxCell id="S4vEpRtLoYUOu1Y5i1EH-6" style="edgeStyle=orthogonalEdgeStyle;rounded=0;orthogonalLoop=1;jettySize=auto;html=1;exitX=0.5;exitY=1;exitDx=0;exitDy=0;entryX=1;entryY=0.5;entryDx=0;entryDy=0;entryPerimeter=0;" parent="1" source="S4vEpRtLoYUOu1Y5i1EH-3" target="S4vEpRtLoYUOu1Y5i1EH-5" edge="1">
          <mxGeometry relative="1" as="geometry">
            <mxPoint x="694" y="124" as="sourcePoint"/>
          </mxGeometry>
        </mxCell>
        <mxCell id="LLOeR4sEf4YQGzSrki6--1" style="edgeStyle=orthogonalEdgeStyle;rounded=0;orthogonalLoop=1;jettySize=auto;html=1;exitX=0.5;exitY=1;exitDx=0;exitDy=0;entryX=1;entryY=0.5;entryDx=0;entryDy=0;" parent="1" source="S4vEpRtLoYUOu1Y5i1EH-10" target="7yguZ5mXVUmebH4h-tQh-15" edge="1">
          <mxGeometry relative="1" as="geometry"/>
        </mxCell>
        <mxCell id="S4vEpRtLoYUOu1Y5i1EH-10" value="ML Hyperparam. Tuning" style="swimlane;fontStyle=0;childLayout=stackLayout;horizontal=1;startSize=26;fillColor=none;horizontalStack=0;resizeParent=1;resizeParentMax=0;resizeLast=0;collapsible=1;marginBottom=0;glass=0;swimlaneLine=1;rounded=1;" parent="1" vertex="1">
          <mxGeometry x="730" y="260" width="170" height="78" as="geometry">
            <mxRectangle x="700" y="256" width="157" height="26" as="alternateBounds"/>
          </mxGeometry>
        </mxCell>
        <mxCell id="S4vEpRtLoYUOu1Y5i1EH-11" value="1. Min Max Scaler (Features)" style="text;strokeColor=none;fillColor=none;align=left;verticalAlign=top;spacingLeft=4;spacingRight=4;overflow=hidden;rotatable=0;points=[[0,0.5],[1,0.5]];portConstraint=eastwest;" parent="S4vEpRtLoYUOu1Y5i1EH-10" vertex="1">
          <mxGeometry y="26" width="170" height="26" as="geometry"/>
        </mxCell>
        <mxCell id="LLOeR4sEf4YQGzSrki6--9" value="2. GridSearch" style="text;strokeColor=none;fillColor=none;align=left;verticalAlign=top;spacingLeft=4;spacingRight=4;overflow=hidden;rotatable=0;points=[[0,0.5],[1,0.5]];portConstraint=eastwest;fontStyle=1" parent="S4vEpRtLoYUOu1Y5i1EH-10" vertex="1">
          <mxGeometry y="52" width="170" height="26" as="geometry"/>
        </mxCell>
        <mxCell id="7yguZ5mXVUmebH4h-tQh-66" style="edgeStyle=orthogonalEdgeStyle;rounded=0;orthogonalLoop=1;jettySize=auto;html=1;exitX=0.25;exitY=1;exitDx=0;exitDy=0;entryX=0.625;entryY=0;entryDx=0;entryDy=0;" parent="1" source="7yguZ5mXVUmebH4h-tQh-15" target="7yguZ5mXVUmebH4h-tQh-62" edge="1">
          <mxGeometry relative="1" as="geometry">
            <Array as="points">
              <mxPoint x="582" y="410"/>
              <mxPoint x="476" y="410"/>
            </Array>
          </mxGeometry>
        </mxCell>
        <mxCell id="7yguZ5mXVUmebH4h-tQh-15" value="Optimized ML Models" style="verticalLabelPosition=middle;verticalAlign=middle;html=1;shape=process;whiteSpace=wrap;rounded=1;size=0.14;arcSize=6;labelPosition=center;align=center;fillColor=#1ba1e2;strokeColor=#006EAF;fontColor=#ffffff;" parent="1" vertex="1">
          <mxGeometry x="557" y="360.5" width="100" height="30" as="geometry"/>
        </mxCell>
        <mxCell id="7yguZ5mXVUmebH4h-tQh-30" value="...on Features" style="edgeStyle=orthogonalEdgeStyle;curved=1;rounded=0;orthogonalLoop=1;jettySize=auto;html=1;exitX=0.5;exitY=1;exitDx=0;exitDy=0;entryX=0.5;entryY=0;entryDx=0;entryDy=0;endArrow=none;endFill=0;" parent="1" source="7yguZ5mXVUmebH4h-tQh-18" target="7yguZ5mXVUmebH4h-tQh-29" edge="1">
          <mxGeometry relative="1" as="geometry"/>
        </mxCell>
        <mxCell id="7yguZ5mXVUmebH4h-tQh-18" value="Stratified K-Fold (10 Folds)" style="rounded=1;whiteSpace=wrap;html=1;absoluteArcSize=1;arcSize=14;strokeWidth=2;fillColor=#dae8fc;strokeColor=#6c8ebf;" parent="1" vertex="1">
          <mxGeometry x="464.5" y="175" width="160" height="30" as="geometry"/>
        </mxCell>
        <mxCell id="7yguZ5mXVUmebH4h-tQh-65" style="edgeStyle=orthogonalEdgeStyle;rounded=0;orthogonalLoop=1;jettySize=auto;html=1;exitX=0.25;exitY=1;exitDx=0;exitDy=0;entryX=0.625;entryY=0;entryDx=0;entryDy=0;" parent="1" source="7yguZ5mXVUmebH4h-tQh-21" target="7yguZ5mXVUmebH4h-tQh-62" edge="1">
          <mxGeometry relative="1" as="geometry">
            <Array as="points">
              <mxPoint x="576" y="350"/>
              <mxPoint x="476" y="350"/>
            </Array>
          </mxGeometry>
        </mxCell>
        <mxCell id="7yguZ5mXVUmebH4h-tQh-21" value="Optimized ClassNN Model" style="verticalLabelPosition=middle;verticalAlign=middle;html=1;shape=process;whiteSpace=wrap;rounded=1;size=0.14;arcSize=6;labelPosition=center;align=center;fillColor=#1ba1e2;strokeColor=#006EAF;fontColor=#ffffff;" parent="1" vertex="1">
          <mxGeometry x="544" y="308" width="126" height="30" as="geometry"/>
        </mxCell>
        <mxCell id="7yguZ5mXVUmebH4h-tQh-25" value="Metrics:&lt;br&gt;&lt;b&gt;Training&lt;/b&gt;&lt;br&gt;Data" style="strokeWidth=2;html=1;shape=mxgraph.flowchart.multi-document;whiteSpace=wrap;fillColor=#f5f5f5;strokeColor=#666666;fontColor=#333333;" parent="1" vertex="1">
          <mxGeometry x="260" y="415" width="88" height="60" as="geometry"/>
        </mxCell>
        <mxCell id="7yguZ5mXVUmebH4h-tQh-26" value="Metrics:&lt;br&gt;&lt;b&gt;Validation&lt;/b&gt;&lt;br&gt;Data" style="strokeWidth=2;html=1;shape=mxgraph.flowchart.multi-document;whiteSpace=wrap;" parent="1" vertex="1">
          <mxGeometry x="563" y="415" width="88" height="60" as="geometry"/>
        </mxCell>
        <mxCell id="7yguZ5mXVUmebH4h-tQh-27" value="Metrics:&lt;br&gt;Test&lt;br&gt;Data" style="strokeWidth=2;html=1;shape=mxgraph.flowchart.multi-document;whiteSpace=wrap;fillColor=#d5e8d4;strokeColor=#82b366;" parent="1" vertex="1">
          <mxGeometry x="771" y="415" width="88" height="60" as="geometry"/>
        </mxCell>
        <mxCell id="7yguZ5mXVUmebH4h-tQh-54" value="Train" style="edgeStyle=orthogonalEdgeStyle;rounded=0;orthogonalLoop=1;jettySize=auto;html=1;exitX=0.25;exitY=1;exitDx=0;exitDy=0;endArrow=none;endFill=0;entryX=0;entryY=0.5;entryDx=0;entryDy=0;dashed=1;" parent="1" source="7yguZ5mXVUmebH4h-tQh-29" target="7yguZ5mXVUmebH4h-tQh-15" edge="1">
          <mxGeometry x="0.6824" relative="1" as="geometry">
            <Array as="points">
              <mxPoint x="504" y="376"/>
            </Array>
            <mxPoint x="480" y="370" as="targetPoint"/>
            <mxPoint as="offset"/>
          </mxGeometry>
        </mxCell>
        <mxCell id="LLOeR4sEf4YQGzSrki6--2" value="Train" style="edgeStyle=orthogonalEdgeStyle;rounded=0;orthogonalLoop=1;jettySize=auto;html=1;exitX=0.25;exitY=1;exitDx=0;exitDy=0;entryX=0;entryY=0.5;entryDx=0;entryDy=0;endArrow=none;endFill=0;dashed=1;" parent="1" source="7yguZ5mXVUmebH4h-tQh-29" target="7yguZ5mXVUmebH4h-tQh-21" edge="1">
          <mxGeometry x="0.5152" relative="1" as="geometry">
            <Array as="points">
              <mxPoint x="504" y="323"/>
            </Array>
            <mxPoint as="offset"/>
          </mxGeometry>
        </mxCell>
        <mxCell id="7yguZ5mXVUmebH4h-tQh-29" value="Min Max Scaler (Features)" style="rounded=1;whiteSpace=wrap;html=1;absoluteArcSize=1;arcSize=14;strokeWidth=2;fillColor=#dae8fc;strokeColor=#6c8ebf;" parent="1" vertex="1">
          <mxGeometry x="464" y="268" width="160" height="30" as="geometry"/>
        </mxCell>
        <mxCell id="7yguZ5mXVUmebH4h-tQh-39" style="edgeStyle=orthogonalEdgeStyle;curved=1;rounded=0;orthogonalLoop=1;jettySize=auto;html=1;exitX=0;exitY=0.85;exitDx=0;exitDy=0;entryX=0.25;entryY=0;entryDx=0;entryDy=0;shape=link;exitPerimeter=0;" parent="1" source="S4vEpRtLoYUOu1Y5i1EH-5" target="7yguZ5mXVUmebH4h-tQh-33" edge="1">
          <mxGeometry relative="1" as="geometry"/>
        </mxCell>
        <mxCell id="7yguZ5mXVUmebH4h-tQh-44" value="...on Features" style="edgeStyle=orthogonalEdgeStyle;curved=1;rounded=0;orthogonalLoop=1;jettySize=auto;html=1;entryX=0.5;entryY=0;entryDx=0;entryDy=0;endArrow=none;endFill=0;exitX=0.5;exitY=1;exitDx=0;exitDy=0;" parent="1" source="7yguZ5mXVUmebH4h-tQh-31" target="7yguZ5mXVUmebH4h-tQh-42" edge="1">
          <mxGeometry relative="1" as="geometry">
            <mxPoint x="330" y="260" as="sourcePoint"/>
          </mxGeometry>
        </mxCell>
        <mxCell id="7yguZ5mXVUmebH4h-tQh-31" value="&lt;span style=&quot;white-space: normal&quot;&gt;Stratified K-Fold (10 Folds)&lt;/span&gt;" style="rounded=1;whiteSpace=wrap;html=1;absoluteArcSize=1;arcSize=14;strokeWidth=2;fillColor=#fff2cc;strokeColor=#d6b656;" parent="1" vertex="1">
          <mxGeometry x="297" y="175" width="160" height="30" as="geometry"/>
        </mxCell>
        <mxCell id="7yguZ5mXVUmebH4h-tQh-33" value="ML Hyperparam. Tuning" style="swimlane;fontStyle=0;childLayout=stackLayout;horizontal=1;startSize=26;fillColor=none;horizontalStack=0;resizeParent=1;resizeParentMax=0;resizeLast=0;collapsible=1;marginBottom=0;rounded=1;comic=0;" parent="1" vertex="1">
          <mxGeometry x="50" y="286.5" width="170" height="104" as="geometry">
            <mxRectangle x="50" y="286.5" width="157" height="26" as="alternateBounds"/>
          </mxGeometry>
        </mxCell>
        <mxCell id="7yguZ5mXVUmebH4h-tQh-38" style="edgeStyle=orthogonalEdgeStyle;curved=1;rounded=0;orthogonalLoop=1;jettySize=auto;html=1;entryX=0;entryY=0.5;entryDx=0;entryDy=0;exitX=0;exitY=0.5;exitDx=0;exitDy=0;" parent="7yguZ5mXVUmebH4h-tQh-33" source="7yguZ5mXVUmebH4h-tQh-36" target="7yguZ5mXVUmebH4h-tQh-35" edge="1">
          <mxGeometry relative="1" as="geometry">
            <Array as="points">
              <mxPoint x="-20" y="39"/>
              <mxPoint x="-20" y="65"/>
            </Array>
            <mxPoint x="-10" y="133" as="sourcePoint"/>
          </mxGeometry>
        </mxCell>
        <mxCell id="7yguZ5mXVUmebH4h-tQh-36" value="1. SMOTE (Oversampling)" style="text;strokeColor=none;fillColor=none;align=left;verticalAlign=top;spacingLeft=4;spacingRight=4;overflow=hidden;rotatable=0;points=[[0,0.5],[1,0.5]];portConstraint=eastwest;" parent="7yguZ5mXVUmebH4h-tQh-33" vertex="1">
          <mxGeometry y="26" width="170" height="26" as="geometry"/>
        </mxCell>
        <mxCell id="7yguZ5mXVUmebH4h-tQh-35" value="2. Min Max Scaler (Features)" style="text;strokeColor=none;fillColor=none;align=left;verticalAlign=top;spacingLeft=4;spacingRight=4;overflow=hidden;rotatable=0;points=[[0,0.5],[1,0.5]];portConstraint=eastwest;" parent="7yguZ5mXVUmebH4h-tQh-33" vertex="1">
          <mxGeometry y="52" width="170" height="26" as="geometry"/>
        </mxCell>
        <mxCell id="LLOeR4sEf4YQGzSrki6--11" value="3. GridSearch" style="text;strokeColor=none;fillColor=none;align=left;verticalAlign=top;spacingLeft=4;spacingRight=4;overflow=hidden;rotatable=0;points=[[0,0.5],[1,0.5]];portConstraint=eastwest;fontStyle=1" parent="7yguZ5mXVUmebH4h-tQh-33" vertex="1">
          <mxGeometry y="78" width="170" height="26" as="geometry"/>
        </mxCell>
        <mxCell id="7yguZ5mXVUmebH4h-tQh-63" style="edgeStyle=orthogonalEdgeStyle;rounded=0;orthogonalLoop=1;jettySize=auto;html=1;exitX=0.75;exitY=1;exitDx=0;exitDy=0;entryX=0.375;entryY=0;entryDx=0;entryDy=0;" parent="1" source="7yguZ5mXVUmebH4h-tQh-40" target="7yguZ5mXVUmebH4h-tQh-62" edge="1">
          <mxGeometry relative="1" as="geometry">
            <Array as="points">
              <mxPoint x="335" y="410"/>
              <mxPoint x="434" y="410"/>
            </Array>
          </mxGeometry>
        </mxCell>
        <mxCell id="7yguZ5mXVUmebH4h-tQh-40" value="OS Opt. ML Models" style="verticalLabelPosition=middle;verticalAlign=middle;html=1;shape=process;whiteSpace=wrap;rounded=1;size=0.14;arcSize=6;labelPosition=center;align=center;fillColor=#f0a30a;strokeColor=#BD7000;fontColor=#ffffff;" parent="1" vertex="1">
          <mxGeometry x="260" y="360.5" width="100" height="30" as="geometry"/>
        </mxCell>
        <mxCell id="7yguZ5mXVUmebH4h-tQh-41" style="edgeStyle=orthogonalEdgeStyle;curved=1;rounded=0;orthogonalLoop=1;jettySize=auto;html=1;exitX=0.5;exitY=1;exitDx=0;exitDy=0;entryX=0.5;entryY=0;entryDx=0;entryDy=0;endArrow=none;endFill=0;" parent="1" source="7yguZ5mXVUmebH4h-tQh-42" target="7yguZ5mXVUmebH4h-tQh-43" edge="1">
          <mxGeometry relative="1" as="geometry"/>
        </mxCell>
        <mxCell id="7yguZ5mXVUmebH4h-tQh-42" value="SMOTE (Oversampling)" style="rounded=1;whiteSpace=wrap;html=1;absoluteArcSize=1;arcSize=14;strokeWidth=2;fillColor=#fff2cc;strokeColor=#d6b656;" parent="1" vertex="1">
          <mxGeometry x="297" y="229" width="160" height="30" as="geometry"/>
        </mxCell>
        <mxCell id="7yguZ5mXVUmebH4h-tQh-47" value="Train" style="edgeStyle=orthogonalEdgeStyle;rounded=0;orthogonalLoop=1;jettySize=auto;html=1;exitX=0.75;exitY=1;exitDx=0;exitDy=0;entryX=1;entryY=0.5;entryDx=0;entryDy=0;endArrow=none;endFill=0;dashed=1;" parent="1" source="7yguZ5mXVUmebH4h-tQh-43" target="7yguZ5mXVUmebH4h-tQh-40" edge="1">
          <mxGeometry x="0.6899" relative="1" as="geometry">
            <Array as="points">
              <mxPoint x="417" y="376"/>
            </Array>
            <mxPoint as="offset"/>
          </mxGeometry>
        </mxCell>
        <mxCell id="7yguZ5mXVUmebH4h-tQh-48" value="Train" style="edgeStyle=orthogonalEdgeStyle;rounded=0;orthogonalLoop=1;jettySize=auto;html=1;exitX=0.75;exitY=1;exitDx=0;exitDy=0;entryX=1;entryY=0.5;entryDx=0;entryDy=0;endArrow=none;endFill=0;comic=0;dashed=1;" parent="1" source="7yguZ5mXVUmebH4h-tQh-43" target="7yguZ5mXVUmebH4h-tQh-45" edge="1">
          <mxGeometry x="0.5" relative="1" as="geometry">
            <Array as="points">
              <mxPoint x="417" y="323"/>
            </Array>
            <mxPoint as="offset"/>
          </mxGeometry>
        </mxCell>
        <mxCell id="7yguZ5mXVUmebH4h-tQh-43" value="Min Max Scaler (Features)" style="rounded=1;whiteSpace=wrap;html=1;absoluteArcSize=1;arcSize=14;strokeWidth=2;fillColor=#fff2cc;strokeColor=#d6b656;" parent="1" vertex="1">
          <mxGeometry x="297" y="268" width="160" height="30" as="geometry"/>
        </mxCell>
        <mxCell id="7yguZ5mXVUmebH4h-tQh-64" style="edgeStyle=orthogonalEdgeStyle;rounded=0;orthogonalLoop=1;jettySize=auto;html=1;exitX=0.75;exitY=1;exitDx=0;exitDy=0;entryX=0.375;entryY=0;entryDx=0;entryDy=0;" parent="1" source="7yguZ5mXVUmebH4h-tQh-45" target="7yguZ5mXVUmebH4h-tQh-62" edge="1">
          <mxGeometry relative="1" as="geometry">
            <Array as="points">
              <mxPoint x="352" y="350"/>
              <mxPoint x="434" y="350"/>
            </Array>
          </mxGeometry>
        </mxCell>
        <mxCell id="7yguZ5mXVUmebH4h-tQh-45" value="OS Optimized ClassNN Model" style="verticalLabelPosition=middle;verticalAlign=middle;html=1;shape=process;whiteSpace=wrap;rounded=1;size=0.14;arcSize=6;labelPosition=center;align=center;fillColor=#f0a30a;strokeColor=#BD7000;fontColor=#ffffff;" parent="1" vertex="1">
          <mxGeometry x="257" y="308" width="126" height="30" as="geometry"/>
        </mxCell>
        <mxCell id="7yguZ5mXVUmebH4h-tQh-46" style="edgeStyle=orthogonalEdgeStyle;rounded=0;orthogonalLoop=1;jettySize=auto;html=1;entryX=0;entryY=0.5;entryDx=0;entryDy=0;exitX=0.5;exitY=1;exitDx=0;exitDy=0;" parent="1" source="7yguZ5mXVUmebH4h-tQh-33" target="7yguZ5mXVUmebH4h-tQh-40" edge="1">
          <mxGeometry relative="1" as="geometry">
            <mxPoint x="130" y="420" as="sourcePoint"/>
            <Array as="points">
              <mxPoint x="135" y="410"/>
              <mxPoint x="240" y="410"/>
              <mxPoint x="240" y="376"/>
            </Array>
          </mxGeometry>
        </mxCell>
        <mxCell id="7yguZ5mXVUmebH4h-tQh-68" style="edgeStyle=orthogonalEdgeStyle;rounded=0;orthogonalLoop=1;jettySize=auto;html=1;exitX=0;exitY=0.5;exitDx=0;exitDy=0;dashed=1;dashPattern=1 1;endArrow=classic;endFill=0;entryX=1;entryY=0.5;entryDx=0;entryDy=0;entryPerimeter=0;" parent="1" source="7yguZ5mXVUmebH4h-tQh-62" target="7yguZ5mXVUmebH4h-tQh-25" edge="1">
          <mxGeometry relative="1" as="geometry">
            <mxPoint x="330" y="445" as="targetPoint"/>
          </mxGeometry>
        </mxCell>
        <mxCell id="7yguZ5mXVUmebH4h-tQh-74" value="Selection of best models by best metrics&amp;nbsp;" style="edgeStyle=orthogonalEdgeStyle;rounded=0;orthogonalLoop=1;jettySize=auto;html=1;exitX=0.5;exitY=1;exitDx=0;exitDy=0;entryX=0;entryY=0.5;entryDx=0;entryDy=0;startArrow=none;startFill=0;endArrow=classic;endFill=1;" parent="1" source="7yguZ5mXVUmebH4h-tQh-62" target="7yguZ5mXVUmebH4h-tQh-72" edge="1">
          <mxGeometry relative="1" as="geometry"/>
        </mxCell>
        <mxCell id="LLOeR4sEf4YQGzSrki6--29" style="edgeStyle=orthogonalEdgeStyle;rounded=0;orthogonalLoop=1;jettySize=auto;html=1;exitX=1;exitY=0.5;exitDx=0;exitDy=0;entryX=0;entryY=0.5;entryDx=0;entryDy=0;entryPerimeter=0;dashed=1;dashPattern=1 1;endArrow=classic;endFill=0;strokeWidth=1;" parent="1" source="7yguZ5mXVUmebH4h-tQh-62" target="7yguZ5mXVUmebH4h-tQh-26" edge="1">
          <mxGeometry relative="1" as="geometry"/>
        </mxCell>
        <mxCell id="7yguZ5mXVUmebH4h-tQh-62" value="Metrics Assesment" style="verticalLabelPosition=middle;verticalAlign=middle;html=1;shape=hexagon;perimeter=hexagonPerimeter2;arcSize=6;size=0.01276595744680851;labelPosition=center;align=center;fillColor=#f5f5f5;strokeColor=#666666;fontColor=#333333;fontStyle=1" parent="1" vertex="1">
          <mxGeometry x="370" y="430" width="170" height="30" as="geometry"/>
        </mxCell>
        <mxCell id="7yguZ5mXVUmebH4h-tQh-76" style="edgeStyle=orthogonalEdgeStyle;rounded=0;orthogonalLoop=1;jettySize=auto;html=1;exitX=0.5;exitY=1;exitDx=0;exitDy=0;entryX=0.5;entryY=0;entryDx=0;entryDy=0;entryPerimeter=0;startArrow=none;startFill=0;endArrow=classic;endFill=1;" parent="1" source="7yguZ5mXVUmebH4h-tQh-62" target="7yguZ5mXVUmebH4h-tQh-75" edge="1">
          <mxGeometry relative="1" as="geometry"/>
        </mxCell>
        <mxCell id="7yguZ5mXVUmebH4h-tQh-78" style="edgeStyle=orthogonalEdgeStyle;rounded=0;orthogonalLoop=1;jettySize=auto;html=1;exitX=0.25;exitY=0;exitDx=0;exitDy=0;entryX=1;entryY=0.5;entryDx=0;entryDy=0;entryPerimeter=0;startArrow=none;startFill=0;endArrow=classic;endFill=0;dashed=1;dashPattern=1 1;" parent="1" source="7yguZ5mXVUmebH4h-tQh-72" target="7yguZ5mXVUmebH4h-tQh-27" edge="1">
          <mxGeometry relative="1" as="geometry"/>
        </mxCell>
        <mxCell id="LLOeR4sEf4YQGzSrki6--28" style="edgeStyle=orthogonalEdgeStyle;rounded=0;orthogonalLoop=1;jettySize=auto;html=1;exitX=0.5;exitY=1;exitDx=0;exitDy=0;entryX=1;entryY=0.5;entryDx=0;entryDy=0;entryPerimeter=0;endArrow=classic;endFill=1;strokeWidth=2;fillColor=#e51400;strokeColor=#B20000;" parent="1" source="7yguZ5mXVUmebH4h-tQh-72" target="0eRpexR927NenuxwNdnH-3" edge="1">
          <mxGeometry relative="1" as="geometry"/>
        </mxCell>
        <mxCell id="7yguZ5mXVUmebH4h-tQh-72" value="Best Models" style="verticalLabelPosition=middle;verticalAlign=middle;html=1;shape=process;whiteSpace=wrap;rounded=1;size=0.14;arcSize=6;labelPosition=center;align=center;fillColor=#0050ef;strokeColor=#001DBC;fontColor=#ffffff;" parent="1" vertex="1">
          <mxGeometry x="864" y="471.5" width="100" height="30" as="geometry"/>
        </mxCell>
        <mxCell id="0eRpexR927NenuxwNdnH-4" style="edgeStyle=orthogonalEdgeStyle;rounded=0;orthogonalLoop=1;jettySize=auto;html=1;exitX=1;exitY=0.5;exitDx=0;exitDy=0;exitPerimeter=0;entryX=0;entryY=0.5;entryDx=0;entryDy=0;entryPerimeter=0;endArrow=classic;endFill=1;strokeWidth=2;fillColor=#e51400;strokeColor=#B20000;" parent="1" source="LLOeR4sEf4YQGzSrki6--25" target="0eRpexR927NenuxwNdnH-3" edge="1">
          <mxGeometry relative="1" as="geometry"/>
        </mxCell>
        <mxCell id="LLOeR4sEf4YQGzSrki6--26" value="" style="edgeStyle=orthogonalEdgeStyle;rounded=0;orthogonalLoop=1;jettySize=auto;html=1;endArrow=classic;endFill=1;" parent="1" source="7yguZ5mXVUmebH4h-tQh-75" target="LLOeR4sEf4YQGzSrki6--25" edge="1">
          <mxGeometry relative="1" as="geometry"/>
        </mxCell>
        <mxCell id="7yguZ5mXVUmebH4h-tQh-75" value="Extract Feature Importance&lt;br&gt;(Permutation)" style="strokeWidth=2;html=1;shape=mxgraph.flowchart.document2;whiteSpace=wrap;size=0.09333333333333334;verticalAlign=top;" parent="1" vertex="1">
          <mxGeometry x="405" y="505" width="100" height="65" as="geometry"/>
        </mxCell>
        <mxCell id="0eRpexR927NenuxwNdnH-2" value="Train" style="edgeStyle=orthogonalEdgeStyle;rounded=0;orthogonalLoop=1;jettySize=auto;html=1;exitX=0.5;exitY=1;exitDx=0;exitDy=0;entryX=0.5;entryY=0;entryDx=0;entryDy=0;dashed=1;endArrow=none;endFill=0;" parent="1" source="0eRpexR927NenuxwNdnH-1" target="7yguZ5mXVUmebH4h-tQh-72" edge="1">
          <mxGeometry x="0.6854" relative="1" as="geometry">
            <mxPoint as="offset"/>
          </mxGeometry>
        </mxCell>
        <mxCell id="0eRpexR927NenuxwNdnH-1" value="Min Max Scaler (Features)" style="rounded=1;whiteSpace=wrap;html=1;absoluteArcSize=1;arcSize=14;strokeWidth=2;fillColor=#d5e8d4;strokeColor=#82b366;" parent="1" vertex="1">
          <mxGeometry x="834" y="175" width="160" height="30" as="geometry"/>
        </mxCell>
        <mxCell id="0eRpexR927NenuxwNdnH-3" value="&lt;b&gt;Advise on:&lt;br&gt;&lt;/b&gt;&lt;span&gt;Feature Improvement&lt;/span&gt;&lt;br&gt;&lt;span&gt;Attrition Prediction&lt;/span&gt;" style="strokeWidth=2;html=1;shape=mxgraph.flowchart.terminator;whiteSpace=wrap;fillColor=#f8cecc;strokeColor=#b85450;" parent="1" vertex="1">
          <mxGeometry x="690" y="501.5" width="150" height="72" as="geometry"/>
        </mxCell>
        <mxCell id="LLOeR4sEf4YQGzSrki6--8" style="edgeStyle=orthogonalEdgeStyle;rounded=0;orthogonalLoop=1;jettySize=auto;html=1;exitX=0.25;exitY=1;exitDx=0;exitDy=0;entryX=1;entryY=0.5;entryDx=0;entryDy=0;endArrow=classic;endFill=1;" parent="1" source="LLOeR4sEf4YQGzSrki6--3" target="7yguZ5mXVUmebH4h-tQh-21" edge="1">
          <mxGeometry relative="1" as="geometry">
            <Array as="points">
              <mxPoint x="690" y="253"/>
              <mxPoint x="690" y="323"/>
            </Array>
          </mxGeometry>
        </mxCell>
        <mxCell id="LLOeR4sEf4YQGzSrki6--3" value="NN Hyperparam.Tuning" style="swimlane;fontStyle=0;childLayout=stackLayout;horizontal=1;startSize=26;fillColor=none;horizontalStack=0;resizeParent=1;resizeParentMax=0;resizeLast=0;collapsible=1;marginBottom=0;glass=0;swimlaneLine=1;rounded=1;" parent="1" vertex="1">
          <mxGeometry x="630" y="175" width="170" height="78" as="geometry">
            <mxRectangle x="630" y="175" width="157" height="26" as="alternateBounds"/>
          </mxGeometry>
        </mxCell>
        <mxCell id="LLOeR4sEf4YQGzSrki6--6" value="1. Min Max Scaler (Features)" style="text;strokeColor=none;fillColor=none;align=left;verticalAlign=top;spacingLeft=4;spacingRight=4;overflow=hidden;rotatable=0;points=[[0,0.5],[1,0.5]];portConstraint=eastwest;" parent="LLOeR4sEf4YQGzSrki6--3" vertex="1">
          <mxGeometry y="26" width="170" height="26" as="geometry"/>
        </mxCell>
        <mxCell id="LLOeR4sEf4YQGzSrki6--10" value="2. Bayesian Optimization" style="text;strokeColor=none;fillColor=none;align=left;verticalAlign=top;spacingLeft=4;spacingRight=4;overflow=hidden;rotatable=0;points=[[0,0.5],[1,0.5]];portConstraint=eastwest;fontStyle=1" parent="LLOeR4sEf4YQGzSrki6--3" vertex="1">
          <mxGeometry y="52" width="170" height="26" as="geometry"/>
        </mxCell>
        <mxCell id="LLOeR4sEf4YQGzSrki6--7" style="edgeStyle=orthogonalEdgeStyle;rounded=0;orthogonalLoop=1;jettySize=auto;html=1;exitX=1;exitY=0.85;exitDx=0;exitDy=0;exitPerimeter=0;entryX=0.5;entryY=0;entryDx=0;entryDy=0;curved=1;endArrow=none;endFill=0;shape=link;" parent="1" source="S4vEpRtLoYUOu1Y5i1EH-5" target="LLOeR4sEf4YQGzSrki6--3" edge="1">
          <mxGeometry relative="1" as="geometry">
            <mxPoint x="308.5" y="186" as="sourcePoint"/>
            <mxPoint x="715.5" y="209" as="targetPoint"/>
          </mxGeometry>
        </mxCell>
        <mxCell id="LLOeR4sEf4YQGzSrki6--19" style="edgeStyle=orthogonalEdgeStyle;rounded=0;orthogonalLoop=1;jettySize=auto;html=1;exitX=0.75;exitY=1;exitDx=0;exitDy=0;entryX=0;entryY=0.5;entryDx=0;entryDy=0;endArrow=classic;endFill=1;" parent="1" source="LLOeR4sEf4YQGzSrki6--12" target="7yguZ5mXVUmebH4h-tQh-45" edge="1">
          <mxGeometry relative="1" as="geometry">
            <Array as="points">
              <mxPoint x="238" y="323"/>
            </Array>
          </mxGeometry>
        </mxCell>
        <mxCell id="LLOeR4sEf4YQGzSrki6--12" value="NN Hyperparam. Tuning" style="swimlane;fontStyle=0;childLayout=stackLayout;horizontal=1;startSize=26;fillColor=none;horizontalStack=0;resizeParent=1;resizeParentMax=0;resizeLast=0;collapsible=1;marginBottom=0;rounded=1;comic=0;" parent="1" vertex="1">
          <mxGeometry x="120" y="175" width="170" height="104" as="geometry">
            <mxRectangle x="120" y="175" width="157" height="26" as="alternateBounds"/>
          </mxGeometry>
        </mxCell>
        <mxCell id="LLOeR4sEf4YQGzSrki6--13" style="edgeStyle=orthogonalEdgeStyle;curved=1;rounded=0;orthogonalLoop=1;jettySize=auto;html=1;entryX=0;entryY=0.5;entryDx=0;entryDy=0;exitX=0;exitY=0.5;exitDx=0;exitDy=0;" parent="LLOeR4sEf4YQGzSrki6--12" source="LLOeR4sEf4YQGzSrki6--14" target="LLOeR4sEf4YQGzSrki6--15" edge="1">
          <mxGeometry relative="1" as="geometry">
            <Array as="points">
              <mxPoint x="-20" y="39"/>
              <mxPoint x="-20" y="65"/>
            </Array>
            <mxPoint x="-10" y="133" as="sourcePoint"/>
          </mxGeometry>
        </mxCell>
        <mxCell id="LLOeR4sEf4YQGzSrki6--14" value="1. SMOTE (Oversampling)" style="text;strokeColor=none;fillColor=none;align=left;verticalAlign=top;spacingLeft=4;spacingRight=4;overflow=hidden;rotatable=0;points=[[0,0.5],[1,0.5]];portConstraint=eastwest;" parent="LLOeR4sEf4YQGzSrki6--12" vertex="1">
          <mxGeometry y="26" width="170" height="26" as="geometry"/>
        </mxCell>
        <mxCell id="LLOeR4sEf4YQGzSrki6--15" value="2. Min Max Scaler (Features)" style="text;strokeColor=none;fillColor=none;align=left;verticalAlign=top;spacingLeft=4;spacingRight=4;overflow=hidden;rotatable=0;points=[[0,0.5],[1,0.5]];portConstraint=eastwest;" parent="LLOeR4sEf4YQGzSrki6--12" vertex="1">
          <mxGeometry y="52" width="170" height="26" as="geometry"/>
        </mxCell>
        <mxCell id="LLOeR4sEf4YQGzSrki6--16" value="3. Bayesian Optimization" style="text;strokeColor=none;fillColor=none;align=left;verticalAlign=top;spacingLeft=4;spacingRight=4;overflow=hidden;rotatable=0;points=[[0,0.5],[1,0.5]];portConstraint=eastwest;fontStyle=1" parent="LLOeR4sEf4YQGzSrki6--12" vertex="1">
          <mxGeometry y="78" width="170" height="26" as="geometry"/>
        </mxCell>
        <mxCell id="LLOeR4sEf4YQGzSrki6--18" style="edgeStyle=orthogonalEdgeStyle;curved=1;rounded=0;orthogonalLoop=1;jettySize=auto;html=1;shape=link;exitX=0;exitY=0.85;exitDx=0;exitDy=0;exitPerimeter=0;" parent="1" source="S4vEpRtLoYUOu1Y5i1EH-5" target="LLOeR4sEf4YQGzSrki6--12" edge="1">
          <mxGeometry relative="1" as="geometry">
            <mxPoint x="310" y="130" as="sourcePoint"/>
            <mxPoint x="-25" y="239" as="targetPoint"/>
          </mxGeometry>
        </mxCell>
        <mxCell id="LLOeR4sEf4YQGzSrki6--20" value="" style="group" parent="1" vertex="1" connectable="0">
          <mxGeometry x="884" y="60" width="60" height="90" as="geometry"/>
        </mxCell>
        <mxCell id="S4vEpRtLoYUOu1Y5i1EH-4" value="Test&lt;br&gt;Data" style="strokeWidth=2;html=1;shape=mxgraph.flowchart.database;whiteSpace=wrap;verticalAlign=bottom;fillColor=#d5e8d4;strokeColor=#82b366;" parent="LLOeR4sEf4YQGzSrki6--20" vertex="1">
          <mxGeometry y="30" width="60" height="60" as="geometry"/>
        </mxCell>
        <mxCell id="S4vEpRtLoYUOu1Y5i1EH-9" value="10%" style="text;html=1;strokeColor=none;fillColor=none;align=center;verticalAlign=middle;whiteSpace=wrap;rounded=0;" parent="LLOeR4sEf4YQGzSrki6--20" vertex="1">
          <mxGeometry x="10" width="40" height="20" as="geometry"/>
        </mxCell>
        <mxCell id="LLOeR4sEf4YQGzSrki6--21" value="" style="group" parent="1" vertex="1" connectable="0">
          <mxGeometry x="430" y="60" width="60" height="90" as="geometry"/>
        </mxCell>
        <mxCell id="S4vEpRtLoYUOu1Y5i1EH-5" value="Train &lt;br&gt;Data" style="strokeWidth=2;html=1;shape=mxgraph.flowchart.database;whiteSpace=wrap;verticalAlign=bottom;fillColor=#dae8fc;strokeColor=#6c8ebf;" parent="LLOeR4sEf4YQGzSrki6--21" vertex="1">
          <mxGeometry y="30" width="60" height="60" as="geometry"/>
        </mxCell>
        <mxCell id="S4vEpRtLoYUOu1Y5i1EH-8" value="90%" style="text;html=1;strokeColor=none;fillColor=none;align=center;verticalAlign=middle;whiteSpace=wrap;rounded=0;" parent="LLOeR4sEf4YQGzSrki6--21" vertex="1">
          <mxGeometry x="10" width="40" height="20" as="geometry"/>
        </mxCell>
        <mxCell id="LLOeR4sEf4YQGzSrki6--22" value="" style="group" parent="1" vertex="1" connectable="0">
          <mxGeometry x="632" y="20" width="100" height="95" as="geometry"/>
        </mxCell>
        <mxCell id="S4vEpRtLoYUOu1Y5i1EH-3" value="Original&lt;br&gt;Dataset" style="shape=datastore;whiteSpace=wrap;html=1;" parent="LLOeR4sEf4YQGzSrki6--22" vertex="1">
          <mxGeometry x="20" width="60" height="60" as="geometry"/>
        </mxCell>
        <mxCell id="7yguZ5mXVUmebH4h-tQh-79" value="Preprocessing..." style="rounded=1;whiteSpace=wrap;html=1;absoluteArcSize=1;arcSize=14;strokeWidth=2;" parent="LLOeR4sEf4YQGzSrki6--22" vertex="1">
          <mxGeometry y="75" width="100" height="20" as="geometry"/>
        </mxCell>
        <mxCell id="LLOeR4sEf4YQGzSrki6--23" style="edgeStyle=orthogonalEdgeStyle;rounded=0;orthogonalLoop=1;jettySize=auto;html=1;exitX=0.5;exitY=1;exitDx=0;exitDy=0;exitPerimeter=0;entryX=0.5;entryY=0;entryDx=0;entryDy=0;endArrow=classic;endFill=1;" parent="1" source="S4vEpRtLoYUOu1Y5i1EH-5" target="7yguZ5mXVUmebH4h-tQh-31" edge="1">
          <mxGeometry relative="1" as="geometry">
            <Array as="points">
              <mxPoint x="460" y="159"/>
              <mxPoint x="377" y="159"/>
            </Array>
          </mxGeometry>
        </mxCell>
        <mxCell id="LLOeR4sEf4YQGzSrki6--24" style="edgeStyle=orthogonalEdgeStyle;rounded=0;orthogonalLoop=1;jettySize=auto;html=1;exitX=0.5;exitY=1;exitDx=0;exitDy=0;exitPerimeter=0;entryX=0.5;entryY=0;entryDx=0;entryDy=0;endArrow=classic;endFill=1;" parent="1" source="S4vEpRtLoYUOu1Y5i1EH-5" target="7yguZ5mXVUmebH4h-tQh-18" edge="1">
          <mxGeometry relative="1" as="geometry">
            <Array as="points">
              <mxPoint x="460" y="159"/>
              <mxPoint x="545" y="159"/>
            </Array>
          </mxGeometry>
        </mxCell>
        <mxCell id="LLOeR4sEf4YQGzSrki6--25" value="Cluster &lt;br&gt;Analisys" style="strokeWidth=2;html=1;shape=mxgraph.flowchart.document2;whiteSpace=wrap;size=0.11;verticalAlign=top;" parent="1" vertex="1">
          <mxGeometry x="540" y="513.5" width="100" height="48" as="geometry"/>
        </mxCell>
      </root>
    </mxGraphModel>
  </diagram>
</mxfile>
